<?xml version="1.0" encoding="UTF-8" standalone="no"?>
<svg
   width="22.01799"
   height="20.963806"
   viewBox="0 0 22.01799 20.963806"
   fill="none"
   version="1.1"
   id="svg4"
   sodipodi:docname="heart_svg_before.svg"
   inkscape:export-filename="heart_svg_after2.svg"
   inkscape:export-xdpi="96"
   inkscape:export-ydpi="96"
   xmlns:inkscape="http://www.inkscape.org/namespaces/inkscape"
   xmlns:sodipodi="http://sodipodi.sourceforge.net/DTD/sodipodi-0.dtd"
   xmlns:xlink="http://www.w3.org/1999/xlink"
   xmlns="http://www.w3.org/2000/svg"
   xmlns:svg="http://www.w3.org/2000/svg">
  <defs
     id="defs8">
    <linearGradient
       inkscape:collect="always"
       id="linearGradient6833">
      <stop
         style="stop-color:#9356dc;stop-opacity:1;"
         offset="0"
         id="stop6829" />
      <stop
         style="stop-color:#ff79da;stop-opacity:1;"
         offset="1"
         id="stop6831" />
    </linearGradient>
    <linearGradient
       inkscape:collect="always"
       xlink:href="#linearGradient6833"
       id="linearGradient6835"
       x1="11.476691"
       y1="-5.4740691"
       x2="3.9003742"
       y2="28.006359"
       gradientUnits="userSpaceOnUse" />
  </defs>
  <sodipodi:namedview
     id="namedview6"
     pagecolor="#ffffff"
     bordercolor="#000000"
     borderopacity="0.25"
     inkscape:showpageshadow="2"
     inkscape:pageopacity="0.0"
     inkscape:pagecheckerboard="0"
     inkscape:deskcolor="#d1d1d1"
     showgrid="false" />
  <path
     d="m 12.229375,2.3937608 3e-4,-2.5e-4 c 2.0017,-2.25318002 5.1826,-2.57496102 7.3034,-0.60364 2.4943,2.32243 2.6317,6.52139 0.388,9.0473302 l -10e-5,10e-5 -8.3143,9.3655 c -0.3382,0.3808 -0.8607,0.3808 -1.1989,0 l -8.3141503,-9.3653 c -2.23973404,-2.5259302 -2.10233804,-6.7250002 0.39185,-9.0474902 2.12097,-1.97165902 5.30607,-1.64942502 7.3033,0.60313 l 5e-4,6.2e-4 0.8465003,0.95156 0.3736,0.41995 0.3736,-0.41995 z"
     stroke="#101010"
     id="path2"
     style="fill:url(#linearGradient6835);fill-opacity:1" />
</svg>
